<mxfile host="app.diagrams.net" agent="Mozilla/5.0 (X11; Linux x86_64) AppleWebKit/537.36 (KHTML, like Gecko) Chrome/139.0.0.0 Safari/537.36" version="28.2.5">
  <diagram name="Page-1" id="Q7Ce9FwTM59Tk3tOPANz">
    <mxGraphModel dx="1937" dy="2309" grid="1" gridSize="1" guides="1" tooltips="1" connect="1" arrows="1" fold="1" page="1" pageScale="1" pageWidth="827" pageHeight="1169" math="0" shadow="0">
      <root>
        <mxCell id="0" />
        <mxCell id="1" parent="0" />
        <mxCell id="Q89PvAly5nBGCmxlc5zy-2" value="EstablecimientoEducativo" style="swimlane;whiteSpace=wrap;html=1;" parent="1" vertex="1">
          <mxGeometry x="80" y="320" width="230" height="230" as="geometry" />
        </mxCell>
        <mxCell id="Q89PvAly5nBGCmxlc5zy-5" value="&lt;u&gt;CUE_Establecimiento&lt;/u&gt; (PK): string&lt;div&gt;&lt;div&gt;nombre: string&lt;/div&gt;&lt;div&gt;sector: string&lt;/div&gt;&lt;div&gt;mail: string&lt;/div&gt;&lt;/div&gt;&lt;div&gt;telefono: string&lt;/div&gt;&lt;div&gt;&lt;div&gt;codigo_area: string&lt;/div&gt;&lt;/div&gt;&lt;div&gt;&lt;br&gt;&lt;/div&gt;" style="text;html=1;align=left;verticalAlign=top;whiteSpace=wrap;rounded=0;" parent="1" vertex="1">
          <mxGeometry x="90" y="350" width="210" height="190" as="geometry" />
        </mxCell>
        <mxCell id="Q89PvAly5nBGCmxlc5zy-6" value="ModalidadEducativa" style="swimlane;whiteSpace=wrap;html=1;" parent="1" vertex="1">
          <mxGeometry x="600" y="340" width="190" height="190" as="geometry" />
        </mxCell>
        <mxCell id="Q89PvAly5nBGCmxlc5zy-7" value="&lt;u&gt;id_modalidad&lt;/u&gt; (PK): int&lt;div&gt;modalidad: string&lt;/div&gt;&lt;div&gt;sub_modalidad: string&lt;/div&gt;" style="text;html=1;align=left;verticalAlign=top;whiteSpace=wrap;rounded=0;" parent="Q89PvAly5nBGCmxlc5zy-6" vertex="1">
          <mxGeometry x="10" y="30" width="165.79" height="150" as="geometry" />
        </mxCell>
        <mxCell id="a4SzhUCY0XGnL6Hkrtt8-13" value="" style="endArrow=classic;html=1;rounded=0;" edge="1" parent="Q89PvAly5nBGCmxlc5zy-6">
          <mxGeometry width="50" height="50" relative="1" as="geometry">
            <mxPoint x="10" y="45" as="sourcePoint" />
            <mxPoint x="10" y="59" as="targetPoint" />
            <Array as="points">
              <mxPoint x="-29" y="45" />
              <mxPoint x="-29" y="59" />
            </Array>
          </mxGeometry>
        </mxCell>
        <mxCell id="Q89PvAly5nBGCmxlc5zy-15" value="EstablecimientoModalidad" style="swimlane;whiteSpace=wrap;html=1;" parent="1" vertex="1">
          <mxGeometry x="340" y="340" width="224" height="190" as="geometry" />
        </mxCell>
        <mxCell id="Q89PvAly5nBGCmxlc5zy-16" value="&lt;div&gt;&lt;u&gt;CUE_Establecimiento&lt;/u&gt; (PK) (FK): string&lt;/div&gt;&lt;u&gt;id_modalidad&lt;/u&gt; (PK) (FK): int&lt;div&gt;&lt;br&gt;&lt;/div&gt;" style="text;html=1;align=left;verticalAlign=top;whiteSpace=wrap;rounded=0;" parent="Q89PvAly5nBGCmxlc5zy-15" vertex="1">
          <mxGeometry x="10" y="30" width="212" height="150" as="geometry" />
        </mxCell>
        <mxCell id="Q89PvAly5nBGCmxlc5zy-17" value="" style="endArrow=none;html=1;rounded=0;exitX=0;exitY=0.5;exitDx=0;exitDy=0;entryX=1;entryY=0.5;entryDx=0;entryDy=0;" parent="1" source="Q89PvAly5nBGCmxlc5zy-15" target="Q89PvAly5nBGCmxlc5zy-2" edge="1">
          <mxGeometry width="50" height="50" relative="1" as="geometry">
            <mxPoint x="370" y="470" as="sourcePoint" />
            <mxPoint x="420" y="420" as="targetPoint" />
          </mxGeometry>
        </mxCell>
        <mxCell id="Q89PvAly5nBGCmxlc5zy-18" value="" style="endArrow=none;html=1;rounded=0;exitX=0;exitY=0.5;exitDx=0;exitDy=0;entryX=1.009;entryY=0.43;entryDx=0;entryDy=0;entryPerimeter=0;" parent="1" source="Q89PvAly5nBGCmxlc5zy-6" edge="1" target="Q89PvAly5nBGCmxlc5zy-16">
          <mxGeometry width="50" height="50" relative="1" as="geometry">
            <mxPoint x="580" y="434.65999999999997" as="sourcePoint" />
            <mxPoint x="584" y="427" as="targetPoint" />
          </mxGeometry>
        </mxCell>
        <mxCell id="Q89PvAly5nBGCmxlc5zy-19" value="EstablecimientoUbicacion" style="swimlane;whiteSpace=wrap;html=1;" parent="1" vertex="1">
          <mxGeometry x="80" y="-40" width="228" height="190" as="geometry" />
        </mxCell>
        <mxCell id="Q89PvAly5nBGCmxlc5zy-20" value="&lt;div&gt;&lt;u&gt;CUE_Establecimiento&lt;/u&gt; (PK) (FK): string&lt;/div&gt;&lt;div&gt;id_departamento (FK): int&lt;/div&gt;&lt;div&gt;&lt;span style=&quot;background-color: transparent; color: light-dark(rgb(0, 0, 0), rgb(255, 255, 255));&quot;&gt;ambito: string&lt;/span&gt;&lt;/div&gt;&lt;div&gt;domicilio: string&lt;/div&gt;&lt;div&gt;codigo_postal: string&lt;/div&gt;&lt;div&gt;&lt;span style=&quot;background-color: transparent; color: light-dark(rgb(0, 0, 0), rgb(255, 255, 255));&quot;&gt;localidad: string&lt;/span&gt;&lt;/div&gt;&lt;div&gt;&lt;br&gt;&lt;/div&gt;" style="text;html=1;align=left;verticalAlign=top;whiteSpace=wrap;rounded=0;" parent="Q89PvAly5nBGCmxlc5zy-19" vertex="1">
          <mxGeometry x="10" y="30" width="213" height="150" as="geometry" />
        </mxCell>
        <mxCell id="Q89PvAly5nBGCmxlc5zy-22" value="" style="endArrow=none;html=1;rounded=0;entryX=0.5;entryY=1;entryDx=0;entryDy=0;exitX=0.5;exitY=0;exitDx=0;exitDy=0;" parent="1" source="Q89PvAly5nBGCmxlc5zy-2" target="Q89PvAly5nBGCmxlc5zy-19" edge="1">
          <mxGeometry width="50" height="50" relative="1" as="geometry">
            <mxPoint x="330" y="230" as="sourcePoint" />
            <mxPoint x="380" y="180" as="targetPoint" />
          </mxGeometry>
        </mxCell>
        <mxCell id="Q89PvAly5nBGCmxlc5zy-23" value="ActividadDepartamento" style="swimlane;whiteSpace=wrap;html=1;" parent="1" vertex="1">
          <mxGeometry x="570" y="-60" width="230" height="230" as="geometry" />
        </mxCell>
        <mxCell id="Q89PvAly5nBGCmxlc5zy-24" value="&lt;div&gt;&lt;u&gt;id_departamento&lt;/u&gt; (PK) (FK): int&lt;/div&gt;&lt;u&gt;clae6&lt;/u&gt; (PK) (FK): string&lt;div&gt;&lt;span style=&quot;background-color: transparent; color: light-dark(rgb(0, 0, 0), rgb(255, 255, 255));&quot;&gt;&lt;u&gt;genero&lt;/u&gt; (PK): string&lt;/span&gt;&lt;span style=&quot;background-color: transparent; color: light-dark(rgb(0, 0, 0), rgb(255, 255, 255)); white-space: pre;&quot;&gt;&#x9;&lt;/span&gt;&lt;/div&gt;&lt;div&gt;empleo: int&lt;/div&gt;&lt;div&gt;establecimiento: int&lt;/div&gt;&lt;div&gt;empresas_exportadores: int&lt;/div&gt;" style="text;html=1;align=left;verticalAlign=top;whiteSpace=wrap;rounded=0;" parent="1" vertex="1">
          <mxGeometry x="580" y="-30" width="210" height="190" as="geometry" />
        </mxCell>
        <mxCell id="Q89PvAly5nBGCmxlc5zy-25" value="DepartamentoCatalogo" style="swimlane;whiteSpace=wrap;html=1;" parent="1" vertex="1">
          <mxGeometry x="340" y="-40" width="190" height="190" as="geometry" />
        </mxCell>
        <mxCell id="Q89PvAly5nBGCmxlc5zy-26" value="&lt;div&gt;&lt;u&gt;id_departamento&lt;/u&gt; (PK): int&lt;/div&gt;&lt;div&gt;provincia_id (FK): int&lt;/div&gt;&lt;div&gt;departamento: string&lt;/div&gt;" style="text;html=1;align=left;verticalAlign=top;whiteSpace=wrap;rounded=0;" parent="Q89PvAly5nBGCmxlc5zy-25" vertex="1">
          <mxGeometry x="10" y="30" width="165.79" height="150" as="geometry" />
        </mxCell>
        <mxCell id="Q89PvAly5nBGCmxlc5zy-30" value="" style="endArrow=none;html=1;rounded=0;entryX=1;entryY=0.5;entryDx=0;entryDy=0;exitX=0;exitY=0.5;exitDx=0;exitDy=0;" parent="1" source="Q89PvAly5nBGCmxlc5zy-23" target="Q89PvAly5nBGCmxlc5zy-25" edge="1">
          <mxGeometry width="50" height="50" relative="1" as="geometry">
            <mxPoint x="570" y="50" as="sourcePoint" />
            <mxPoint x="720" y="40" as="targetPoint" />
          </mxGeometry>
        </mxCell>
        <mxCell id="Q89PvAly5nBGCmxlc5zy-31" value="ActividadCatalogo" style="swimlane;whiteSpace=wrap;html=1;" parent="1" vertex="1">
          <mxGeometry x="590" y="-280" width="190" height="190" as="geometry" />
        </mxCell>
        <mxCell id="Q89PvAly5nBGCmxlc5zy-32" value="&lt;u&gt;clae6&lt;/u&gt; (PK): string&lt;div&gt;&lt;span style=&quot;background-color: transparent; color: light-dark(rgb(0, 0, 0), rgb(255, 255, 255));&quot;&gt;descripcion: string&lt;/span&gt;&lt;/div&gt;" style="text;html=1;align=left;verticalAlign=top;whiteSpace=wrap;rounded=0;" parent="Q89PvAly5nBGCmxlc5zy-31" vertex="1">
          <mxGeometry x="10" y="30" width="165.79" height="150" as="geometry" />
        </mxCell>
        <mxCell id="a4SzhUCY0XGnL6Hkrtt8-16" value="" style="endArrow=classic;html=1;rounded=0;" edge="1" parent="Q89PvAly5nBGCmxlc5zy-31">
          <mxGeometry width="50" height="50" relative="1" as="geometry">
            <mxPoint x="11" y="45" as="sourcePoint" />
            <mxPoint x="11" y="59" as="targetPoint" />
            <Array as="points">
              <mxPoint x="-28" y="45" />
              <mxPoint x="-28" y="59" />
            </Array>
          </mxGeometry>
        </mxCell>
        <mxCell id="Q89PvAly5nBGCmxlc5zy-33" value="" style="endArrow=none;html=1;rounded=0;entryX=0.5;entryY=1;entryDx=0;entryDy=0;exitX=0.5;exitY=0;exitDx=0;exitDy=0;" parent="1" source="Q89PvAly5nBGCmxlc5zy-23" target="Q89PvAly5nBGCmxlc5zy-31" edge="1">
          <mxGeometry width="50" height="50" relative="1" as="geometry">
            <mxPoint x="260" y="-390" as="sourcePoint" />
            <mxPoint x="310" y="-440" as="targetPoint" />
          </mxGeometry>
        </mxCell>
        <mxCell id="Q89PvAly5nBGCmxlc5zy-34" value="PoblacionDepartamento" style="swimlane;whiteSpace=wrap;html=1;" parent="1" vertex="1">
          <mxGeometry x="340" y="-290" width="190" height="190" as="geometry" />
        </mxCell>
        <mxCell id="Q89PvAly5nBGCmxlc5zy-35" value="&lt;u&gt;id_departamento&lt;/u&gt; (PK) (FK): int&lt;div&gt;&lt;span style=&quot;background-color: transparent; color: light-dark(rgb(0, 0, 0), rgb(255, 255, 255));&quot;&gt;&lt;u&gt;edad&lt;/u&gt; (PK): int&lt;/span&gt;&lt;/div&gt;&lt;div&gt;&lt;span style=&quot;background-color: transparent; color: light-dark(rgb(0, 0, 0), rgb(255, 255, 255));&quot;&gt;casos: int&lt;/span&gt;&lt;/div&gt;" style="text;html=1;align=left;verticalAlign=top;whiteSpace=wrap;rounded=0;" parent="Q89PvAly5nBGCmxlc5zy-34" vertex="1">
          <mxGeometry x="10" y="30" width="165.79" height="150" as="geometry" />
        </mxCell>
        <mxCell id="a4SzhUCY0XGnL6Hkrtt8-19" value="" style="strokeWidth=2;html=1;shape=mxgraph.flowchart.annotation_2;align=left;labelPosition=right;pointerEvents=1;" vertex="1" parent="Q89PvAly5nBGCmxlc5zy-34">
          <mxGeometry x="-15" y="44" width="24" height="16" as="geometry" />
        </mxCell>
        <mxCell id="Q89PvAly5nBGCmxlc5zy-39" value="" style="endArrow=none;html=1;rounded=0;entryX=0.5;entryY=1;entryDx=0;entryDy=0;exitX=0.5;exitY=0;exitDx=0;exitDy=0;" parent="1" source="Q89PvAly5nBGCmxlc5zy-25" target="Q89PvAly5nBGCmxlc5zy-34" edge="1">
          <mxGeometry width="50" height="50" relative="1" as="geometry">
            <mxPoint x="350" y="-50" as="sourcePoint" />
            <mxPoint x="400" y="-100" as="targetPoint" />
          </mxGeometry>
        </mxCell>
        <mxCell id="Q89PvAly5nBGCmxlc5zy-44" value="" style="endArrow=none;html=1;rounded=0;exitX=0;exitY=0.5;exitDx=0;exitDy=0;entryX=1;entryY=0.5;entryDx=0;entryDy=0;" parent="1" source="Q89PvAly5nBGCmxlc5zy-25" target="Q89PvAly5nBGCmxlc5zy-19" edge="1">
          <mxGeometry width="50" height="50" relative="1" as="geometry">
            <mxPoint x="450" y="90" as="sourcePoint" />
            <mxPoint x="500" y="40" as="targetPoint" />
          </mxGeometry>
        </mxCell>
        <mxCell id="Q89PvAly5nBGCmxlc5zy-45" value="ProvinciaCatalogo" style="swimlane;whiteSpace=wrap;html=1;" parent="1" vertex="1">
          <mxGeometry x="359" y="170" width="150" height="150" as="geometry" />
        </mxCell>
        <mxCell id="Q89PvAly5nBGCmxlc5zy-46" value="&lt;div&gt;&lt;span style=&quot;background-color: transparent; color: light-dark(rgb(0, 0, 0), rgb(255, 255, 255));&quot;&gt;&lt;u&gt;id_provincia&lt;/u&gt; (PK): int&lt;/span&gt;&lt;/div&gt;&lt;div&gt;&lt;span style=&quot;background-color: transparent; color: light-dark(rgb(0, 0, 0), rgb(255, 255, 255));&quot;&gt;provincia: string&lt;/span&gt;&lt;/div&gt;&lt;div&gt;&lt;br&gt;&lt;/div&gt;" style="text;html=1;align=left;verticalAlign=top;whiteSpace=wrap;rounded=0;" parent="Q89PvAly5nBGCmxlc5zy-45" vertex="1">
          <mxGeometry x="10" y="30" width="130" height="110" as="geometry" />
        </mxCell>
        <mxCell id="Q89PvAly5nBGCmxlc5zy-48" value="" style="endArrow=none;html=1;rounded=0;entryX=0.5;entryY=1;entryDx=0;entryDy=0;" parent="1" source="Q89PvAly5nBGCmxlc5zy-45" target="Q89PvAly5nBGCmxlc5zy-25" edge="1">
          <mxGeometry width="50" height="50" relative="1" as="geometry">
            <mxPoint x="360" y="270" as="sourcePoint" />
            <mxPoint x="410" y="220" as="targetPoint" />
          </mxGeometry>
        </mxCell>
        <mxCell id="a4SzhUCY0XGnL6Hkrtt8-1" value="" style="endArrow=classic;html=1;rounded=0;" edge="1" parent="1">
          <mxGeometry width="50" height="50" relative="1" as="geometry">
            <mxPoint x="87" y="364" as="sourcePoint" />
            <mxPoint x="87" y="378" as="targetPoint" />
            <Array as="points">
              <mxPoint x="48" y="364" />
              <mxPoint x="48" y="378" />
            </Array>
          </mxGeometry>
        </mxCell>
        <mxCell id="a4SzhUCY0XGnL6Hkrtt8-2" value="" style="endArrow=classic;html=1;rounded=0;" edge="1" parent="1">
          <mxGeometry width="50" height="50" relative="1" as="geometry">
            <mxPoint x="87" y="364" as="sourcePoint" />
            <mxPoint x="88" y="395" as="targetPoint" />
            <Array as="points">
              <mxPoint x="48" y="364" />
              <mxPoint x="48" y="395" />
            </Array>
          </mxGeometry>
        </mxCell>
        <mxCell id="a4SzhUCY0XGnL6Hkrtt8-3" value="" style="endArrow=classic;html=1;rounded=0;" edge="1" parent="1">
          <mxGeometry width="50" height="50" relative="1" as="geometry">
            <mxPoint x="87" y="364" as="sourcePoint" />
            <mxPoint x="88" y="424" as="targetPoint" />
            <Array as="points">
              <mxPoint x="48" y="364" />
              <mxPoint x="48" y="424" />
            </Array>
          </mxGeometry>
        </mxCell>
        <mxCell id="a4SzhUCY0XGnL6Hkrtt8-4" value="" style="endArrow=classic;html=1;rounded=0;" edge="1" parent="1">
          <mxGeometry width="50" height="50" relative="1" as="geometry">
            <mxPoint x="87" y="364" as="sourcePoint" />
            <mxPoint x="88" y="409" as="targetPoint" />
            <Array as="points">
              <mxPoint x="48" y="364" />
              <mxPoint x="48" y="409" />
            </Array>
          </mxGeometry>
        </mxCell>
        <mxCell id="a4SzhUCY0XGnL6Hkrtt8-5" value="" style="endArrow=classic;html=1;rounded=0;" edge="1" parent="1">
          <mxGeometry width="50" height="50" relative="1" as="geometry">
            <mxPoint x="87" y="364" as="sourcePoint" />
            <mxPoint x="89" y="437" as="targetPoint" />
            <Array as="points">
              <mxPoint x="48" y="364" />
              <mxPoint x="48" y="437" />
            </Array>
          </mxGeometry>
        </mxCell>
        <mxCell id="a4SzhUCY0XGnL6Hkrtt8-6" value="" style="endArrow=classic;html=1;rounded=0;" edge="1" parent="1">
          <mxGeometry width="50" height="50" relative="1" as="geometry">
            <mxPoint x="90" y="2" as="sourcePoint" />
            <mxPoint x="90" y="16" as="targetPoint" />
            <Array as="points">
              <mxPoint x="51" y="2" />
              <mxPoint x="51" y="16" />
            </Array>
          </mxGeometry>
        </mxCell>
        <mxCell id="a4SzhUCY0XGnL6Hkrtt8-7" value="" style="endArrow=classic;html=1;rounded=0;" edge="1" parent="1">
          <mxGeometry width="50" height="50" relative="1" as="geometry">
            <mxPoint x="90" y="2" as="sourcePoint" />
            <mxPoint x="91" y="33" as="targetPoint" />
            <Array as="points">
              <mxPoint x="51" y="2" />
              <mxPoint x="51" y="33" />
            </Array>
          </mxGeometry>
        </mxCell>
        <mxCell id="a4SzhUCY0XGnL6Hkrtt8-8" value="" style="endArrow=classic;html=1;rounded=0;" edge="1" parent="1">
          <mxGeometry width="50" height="50" relative="1" as="geometry">
            <mxPoint x="90" y="2" as="sourcePoint" />
            <mxPoint x="91" y="62" as="targetPoint" />
            <Array as="points">
              <mxPoint x="51" y="2" />
              <mxPoint x="51" y="62" />
            </Array>
          </mxGeometry>
        </mxCell>
        <mxCell id="a4SzhUCY0XGnL6Hkrtt8-9" value="" style="endArrow=classic;html=1;rounded=0;" edge="1" parent="1">
          <mxGeometry width="50" height="50" relative="1" as="geometry">
            <mxPoint x="90" y="2" as="sourcePoint" />
            <mxPoint x="91" y="47" as="targetPoint" />
            <Array as="points">
              <mxPoint x="51" y="2" />
              <mxPoint x="51" y="47" />
            </Array>
          </mxGeometry>
        </mxCell>
        <mxCell id="a4SzhUCY0XGnL6Hkrtt8-10" value="" style="endArrow=classic;html=1;rounded=0;" edge="1" parent="1">
          <mxGeometry width="50" height="50" relative="1" as="geometry">
            <mxPoint x="90" y="2" as="sourcePoint" />
            <mxPoint x="92" y="75" as="targetPoint" />
            <Array as="points">
              <mxPoint x="51" y="2" />
              <mxPoint x="51" y="75" />
            </Array>
          </mxGeometry>
        </mxCell>
        <mxCell id="a4SzhUCY0XGnL6Hkrtt8-12" value="" style="endArrow=classic;html=1;rounded=0;" edge="1" parent="1">
          <mxGeometry width="50" height="50" relative="1" as="geometry">
            <mxPoint x="368" y="214" as="sourcePoint" />
            <mxPoint x="368" y="228" as="targetPoint" />
            <Array as="points">
              <mxPoint x="329" y="214" />
              <mxPoint x="329" y="228" />
            </Array>
          </mxGeometry>
        </mxCell>
        <mxCell id="a4SzhUCY0XGnL6Hkrtt8-15" value="" style="endArrow=classic;html=1;rounded=0;" edge="1" parent="1">
          <mxGeometry width="50" height="50" relative="1" as="geometry">
            <mxPoint x="610" y="385" as="sourcePoint" />
            <mxPoint x="611" y="416" as="targetPoint" />
            <Array as="points">
              <mxPoint x="571" y="385" />
              <mxPoint x="571" y="416" />
            </Array>
          </mxGeometry>
        </mxCell>
        <mxCell id="a4SzhUCY0XGnL6Hkrtt8-17" value="" style="endArrow=classic;html=1;rounded=0;" edge="1" parent="1">
          <mxGeometry width="50" height="50" relative="1" as="geometry">
            <mxPoint x="351" y="4" as="sourcePoint" />
            <mxPoint x="351" y="18" as="targetPoint" />
            <Array as="points">
              <mxPoint x="328" y="4" />
              <mxPoint x="328" y="18" />
            </Array>
          </mxGeometry>
        </mxCell>
        <mxCell id="a4SzhUCY0XGnL6Hkrtt8-18" value="" style="endArrow=classic;html=1;rounded=0;" edge="1" parent="1">
          <mxGeometry width="50" height="50" relative="1" as="geometry">
            <mxPoint x="351" y="4" as="sourcePoint" />
            <mxPoint x="352" y="35" as="targetPoint" />
            <Array as="points">
              <mxPoint x="328" y="4" />
              <mxPoint x="328" y="35" />
            </Array>
          </mxGeometry>
        </mxCell>
        <mxCell id="a4SzhUCY0XGnL6Hkrtt8-20" value="" style="endArrow=classic;html=1;rounded=0;" edge="1" parent="1">
          <mxGeometry width="50" height="50" relative="1" as="geometry">
            <mxPoint x="335" y="-238" as="sourcePoint" />
            <mxPoint x="349" y="-216" as="targetPoint" />
            <Array as="points">
              <mxPoint x="296" y="-238" />
              <mxPoint x="296" y="-216" />
            </Array>
          </mxGeometry>
        </mxCell>
        <mxCell id="a4SzhUCY0XGnL6Hkrtt8-21" value="" style="strokeWidth=2;html=1;shape=mxgraph.flowchart.annotation_2;align=left;labelPosition=right;pointerEvents=1;" vertex="1" parent="1">
          <mxGeometry x="566" y="-17" width="15" height="33" as="geometry" />
        </mxCell>
        <mxCell id="a4SzhUCY0XGnL6Hkrtt8-22" value="" style="endArrow=none;html=1;rounded=0;strokeWidth=2;entryX=0.899;entryY=0.509;entryDx=0;entryDy=0;entryPerimeter=0;exitX=0.483;exitY=0.499;exitDx=0;exitDy=0;exitPerimeter=0;" edge="1" parent="1" source="a4SzhUCY0XGnL6Hkrtt8-21" target="a4SzhUCY0XGnL6Hkrtt8-21">
          <mxGeometry width="50" height="50" relative="1" as="geometry">
            <mxPoint x="574" as="sourcePoint" />
            <mxPoint x="628" y="-22" as="targetPoint" />
          </mxGeometry>
        </mxCell>
        <mxCell id="a4SzhUCY0XGnL6Hkrtt8-23" value="" style="endArrow=classic;html=1;rounded=0;entryX=0.002;entryY=0.309;entryDx=0;entryDy=0;entryPerimeter=0;" edge="1" parent="1" target="Q89PvAly5nBGCmxlc5zy-24">
          <mxGeometry width="50" height="50" relative="1" as="geometry">
            <mxPoint x="574" as="sourcePoint" />
            <mxPoint x="577" y="29" as="targetPoint" />
            <Array as="points">
              <mxPoint x="559" />
              <mxPoint x="559" y="29" />
            </Array>
          </mxGeometry>
        </mxCell>
        <mxCell id="a4SzhUCY0XGnL6Hkrtt8-24" value="" style="endArrow=classic;html=1;rounded=0;entryX=0.006;entryY=0.391;entryDx=0;entryDy=0;entryPerimeter=0;" edge="1" parent="1" target="Q89PvAly5nBGCmxlc5zy-24">
          <mxGeometry width="50" height="50" relative="1" as="geometry">
            <mxPoint x="574" as="sourcePoint" />
            <mxPoint x="577" y="44" as="targetPoint" />
            <Array as="points">
              <mxPoint x="559" />
              <mxPoint x="559" y="44" />
            </Array>
          </mxGeometry>
        </mxCell>
        <mxCell id="a4SzhUCY0XGnL6Hkrtt8-25" value="" style="endArrow=classic;html=1;rounded=0;entryX=0.003;entryY=0.465;entryDx=0;entryDy=0;entryPerimeter=0;exitX=0.521;exitY=0.489;exitDx=0;exitDy=0;exitPerimeter=0;" edge="1" parent="1" source="a4SzhUCY0XGnL6Hkrtt8-21" target="Q89PvAly5nBGCmxlc5zy-24">
          <mxGeometry width="50" height="50" relative="1" as="geometry">
            <mxPoint x="574" as="sourcePoint" />
            <mxPoint x="579" y="58" as="targetPoint" />
            <Array as="points">
              <mxPoint x="559" y="-1" />
              <mxPoint x="559" y="59" />
            </Array>
          </mxGeometry>
        </mxCell>
      </root>
    </mxGraphModel>
  </diagram>
</mxfile>
